<svg width="1200" height="1200" xmlns="http://www.w3.org/2000/svg" version="1.1"><g transform="scale(11.848448281533496) translate(0.6256917847527399, 0.5771998299492704)"><g fill="#000000"><g><g><g><g><path d="M51.5,85.2c-0.4-0.5-0.8-0.2-0.8-0.5c-2.4,0.6-6.9-1-8.8-0.8c0.4-0.6-0.6-0.5-0.6-0.9c-0.4,0.6-0.8,0-1.4,0.2 c-0.6-1.5-3-0.4-3.3-2.3c-1.4,0-1.9-0.8-3.3-1.6c0.1-0.1,0.2-0.1,0.3-0.2c-0.7-0.1-0.7-0.5-1.3-0.5l0.2-0.4 c-1.1-0.2-1.5-1.9-3.1-2.5c-0.5-0.1-1.6-1.8-2.2-2.2c-0.3-0.2-0.8-0.2-0.1-0.3c-0.1-0.1-0.1-0.3,0-0.4c-0.7-0.2-0.8-0.8-1.7-1.1 c-0.1-0.3,0.2-0.5,0-0.7c-0.2-0.1-0.5,0.1-0.7,0c-0.1,1.8,1.9,2,2.5,3.5c-0.2-0.2-0.5-0.8-0.7-0.4c-0.1,0.3,0.8,1.4,0.8,0.8 c-0.3,0.2-0.4-0.3-0.2-0.4c0.3,0.5,0.9,0.4,0.9,0.8c-0.3,0.3-0.7-0.3-0.6,0.2c0.9,0.5,0.8,1,1.3,1.7c-0.4-0.5-0.5,0.4-0.9,0 c-0.1-1.5-1.8-1.2-1.8-2.7c-0.2-0.5-0.4-0.1-0.7-0.3c0.4-0.4-1.2-1.8-1.2-1.3c-0.5-0.6-0.2-0.8-0.3-1.2 c-0.4-0.1-0.1,0.4-0.4,0.1c0.4-0.7-0.5-1.6-1.1-2.3l0.4-0.2c-0.7-0.4-0.8-1.2-1.3-2.1c-0.6,0.9,1.2,2.9,0.9,3.3 c0,0.1,0.7,0.9,0.9,1.3c0.8,1.4,1.4,3.1,2.5,3.9c-0.2-0.1-0.1-0.7,0.2-0.4c0,0.3-0.2,0.6-0.2,0.9c0.6,0.6,1.1,1.1,1.7,1.7 c-1.3-0.8-2.6-1.6-3.5-2.8c0.5-0.1,1,0.8,1.4,0.7c-1-0.8-0.7-1.1-1.1-2.1c-0.4-0.3,0.1,0.4-0.3,0.5c-1.3-1.2-2.3-1.9-2.9-3 c0.1-0.1,0.2-0.2,0.2-0.4c-0.1-0.1-0.1-0.1-0.2-0.2c0.6,0.6,0.8,1.1,1.5,1.2c-0.3-0.3,0-0.4-0.4-0.7c-0.2-0.4-0.5,0.2-0.7-0.1 c0.2-0.3,0-0.7,0-1c-0.2,0-0.4,0-0.5-0.3c-0.2-0.1-0.3,0-0.4,0.2c-0.1-0.1-0.1-0.3-0.2-0.4c0,0,0-0.1,0-0.1 c-0.1-0.1-0.2-0.3-0.3-0.4c-0.8-2.1-1.3-4.9-2.4-6.7c0.3-1.2-0.2-3.6-0.5-4.2c0.3-0.5,0.1-2.8-0.1-3.2c-0.5,0.2,0.1,1.3-0.4,1.6 c-0.5-2.2,0.3-4.7,0.1-6.7c0.2,0,0.4,0,0.4-0.1c-0.3-0.3,0.2-0.9,0.1-1.6c0.4-0.9-0.9,1.3-0.9,2.2c-0.1,0.2-0.5,0-0.4,0.5 c0,0.7,0.2,2.1-0.2,3.1c-0.2,0-0.2-0.2-0.4-0.1c-0.1,0.5-0.2,1.1-0.3,1.6c-0.1-0.2-0.2-0.5-0.2-0.6c-0.5-2.5,0-5.4-0.2-7.5 c0.4,0,0.4-0.6,0.7-0.8c-0.1,0.8-0.3,1.8,0.2,2c0.4-3.9,1.2-8.2,3-12.4c1.3-3.1,3.2-6.2,5.5-8.7c0.2,0.3-0.1,1,0,1.3 c2-2.1,3.3-4.6,5.5-6c0.1,0.5-0.9,0.9-0.9,1.3c0.9-0.9,1.2-0.6,2.2-0.9c0.3-0.4-0.4,0-0.5-0.4c0.6-0.4,1-0.9,1.4-1.2 c0,0.1-0.1,0.1-0.1,0.2c1.1-0.3,1.2-0.9,2-1.1c-0.1-0.1-0.3-0.2-0.6-0.1c0.2-0.1,0.5-0.3,0.8-0.4c-0.1,0-0.1,0.1-0.2,0.1 c0.6-0.3,0.1,0.1,0.1,0.3c0.1,0,0.2-0.1,0.2-0.1c-0.6,0.4-1,0.6-1.2,1.3c0.3-0.2,0.4,0,0.8-0.3c0.4-0.2-0.1-0.5,0.2-0.7 c0.3,0.2,0.7,0.1,1,0.1c0-0.2,0.1-0.4,0.3-0.5c0.1-0.2,0-0.3-0.1-0.3c0.1-0.1,0.2-0.1,0.4-0.2c0,0,0.1,0,0.1,0.1 c1.7-0.8,3.6-1.5,5.4-2.1c1.1-0.1,2.5-0.1,3.1-0.8c-0.2,0-0.4,0.1-0.5,0c0.1,0,0.3-0.1,0.4-0.1c0.2,0.2,0.5,0,0.2,0.4 c0.1,0,0.1,0,0.2-0.1c0,0.1,0,0.1,0.1,0.2c0.1,0,0.2-0.1,0.3-0.3c0.1,0,0.2,0,0.3-0.1c0,0-0.1,0.1-0.1,0.1 c0.8-0.2,1.5-0.1,2.6-0.3c0-0.1,0-0.2,0-0.3c0.2,0,0.3-0.1,0.5-0.1c0,0,0,0.1,0,0.1c0.4-0.2,0.8,0.2,0.8,0c0.1,0,0.1,0,0.2,0 c0,0.2-0.1,0.3-0.1,0.4c0.5,0,0.8,0,1-0.3c-0.1-0.1-0.2-0.1-0.3-0.1c0.2,0,0.4-0.1,0.6-0.2c0.3,0.1,0.4,0.2,0.4,0.6 c0.5-0.9,2.1,0.2,2.8,0c0.3,0,0.2-0.4,0.4-0.6c0.1,0,0.2,0,0.3,0c0.5,0.4,1.2,0.8,2.1,0.9c-0.8-0.2,0.1-0.3,0.2-0.4 c-0.2,0-0.2-0.1-0.2-0.2c0.3,0,0.6,0.1,0.9,0.1c0,0.2,0.1,0.3,0.3,0.3c0.2,0,0.2-0.1,0.2-0.3c0.3,0,0.5,0,0.8,0.1 c-0.1,0.4,0.5,0.5,0.7,0.8c-0.8-0.2-1.7-0.5-2,0c3.2,0.7,6.7,1.7,10.1,3.4c0,0,0,0,0,0.1c0,0,0.1,0,0.1,0 c0.6,0.3,1.2,0.6,1.8,0.9c0.4,0.2,0.7,0.4,1.1,0.7c0,0.1,0,0.2,0.2,0.2c0,0,0.1,0,0.1,0c0.4,0.3,0.8,0.5,1.2,0.8 c0.4,0.6,0.8,1.4,1.5,1.2c1.5,2.3,3.1,3.2,4.4,5.6c0.1-0.4,0.4,0.9,0.9,1c-0.8-0.1,0.5,0.5-0.3,0.4c0.7,0.7,0.9,1,1,1.8 c-0.2-0.4-0.3-0.5-0.4-0.1c-0.1,0.6,0.7-0.1,1,0.5c-0.6,0-0.4,0.4-0.3,0.9c0.3-0.3,0.2-0.6,0.5-0.5c0.4,0.4-0.2,0.5-0.1,0.8 c0.3-0.4,0.4-0.2,0.8,0c-0.5,0.1,0.3,0.8-0.3,0.5c0.4,0.5,0.5,0.8,0.3,1.3c-0.4-0.6-0.1-1-0.7-0.9c1.2,1,0.6,3.3,2,3.5 c-0.9,0.2,0,0.6-0.5,0.7c0.6,0.2,0.3,1,1,1.2c-0.1,0.5-0.3,0.8-0.4,1.3c0.3,0.4,0.4,1.2,0.9,1.3c-0.3,0.3-0.1,1.1-0.4,1.4 c0.4-0.2,0.6-0.2,0.9,0.2c-0.5,0.4-0.1,0.8-0.4,0.9c0.9,2.3-0.2,7,0.3,8.8c-0.6-0.3-0.4,0.7-0.8,0.7c0.7,0.3,0.1,0.8,0.4,1.3 c-1.4,0.8,0,3-1.9,3.5c0.2,1.4-0.6,2-1.2,3.5c-0.1-0.1-0.1-0.2-0.2-0.3c-0.1,0.7-0.5,0.8-0.3,1.4l-0.4-0.2 c0,1.1-1.7,1.7-2.1,3.4c-0.1,0.5-1.6,1.8-2,2.5c-0.2,0.3-0.1,0.8-0.3,0.1c-0.1,0.1-0.3,0.1-0.4,0.1c-0.1,0.7-0.7,0.9-0.9,1.8 c-0.2,0.1-0.5-0.2-0.7,0.1c0,0.2,0.2,0.5,0.1,0.7c1.8-0.1,1.8-2.2,3.2-2.9c-0.1,0.3-0.7,0.6-0.3,0.8c0.3,0,1.2-1,0.7-0.9 c0.3,0.2-0.3,0.4-0.4,0.3c0.5-0.4,0.3-0.9,0.7-1c0.3,0.2-0.3,0.7,0.3,0.6c0.4-0.9,0.9-1,1.5-1.5c-0.4,0.4,0.5,0.5,0.1,0.9 c-1.5,0.3-1,2-2.5,2.2c-0.4,0.3-0.1,0.4-0.2,0.7c-0.5-0.3-1.6,1.4-1.2,1.3c-0.5,0.5-0.8,0.3-1.2,0.4c-0.1,0.4,0.4,0.1,0.2,0.4 c-0.7-0.3-1.6,0.7-2.2,1.4l-0.3-0.3c-0.3,0.8-1.1,0.9-2,1.5c1,0.5,2.7-1.6,3.2-1.3c0.1,0,0.9-0.8,1.2-1.1c1.3-1,2.9-1.8,3.5-2.9 c-0.1,0.2-0.7,0.2-0.4-0.1c0.3-0.1,0.6,0.1,0.9,0.1c1.6-2.2,3.6-4,5.1-6.6c0.1-0.1,0.2-0.3,0.3-0.5c-0.2,0.6-0.5,1.1-0.7,1.7 c-1.6,1.1-2.2,4.3-4.1,4.8c0.1,1.1-0.9,1.4-1.4,2.7c-0.3,0.4-0.5-0.3-0.8,0.2c0.3,1.4-2.5,1.3-2.4,2.6c-0.2,0.1-0.5,0.2-0.7,0.4 c0,0-0.1,0-0.1,0c-0.1,0.1-0.1,0.1-0.2,0.2c-0.5,0.3-0.9,0.6-1.3,0.9c-1.4,0.8-3.3,1.4-4.8,2.2c0,0,0-0.1,0-0.1 c-0.4,0.2-0.9,0.1-0.8,0.5c-0.3,0.2-0.6,0.4-0.9,0.6c-0.1,0-0.1,0-0.2,0c0,0-0.1-0.1-0.2-0.1c-0.2,0-0.2,0-0.3,0.1 c-1.3,0.1-3,0.7-3.5,1.1c-0.5-0.3-2.8,0.2-3.2,0.4c0.2,0.3,0.8,0,1.3,0c-0.3,0.1-0.6,0.2-0.7,0.4c-0.1,0-0.1,0-0.2,0 c-0.1-0.3-0.4,0-0.5-0.1c0,0,0.1,0,0.1,0c-0.1-0.4-0.4-0.6-0.9-0.5c0,0.2,0,0.3-0.1,0.5c0.2,0,0.8-0.3,0.8,0 c-0.1,0-0.1,0.1,0,0.1c-0.2,0.2-0.5,0.2-0.7,0.3c-0.4,0-0.9,0-1.3,0c-0.1-0.1-0.2-0.1-0.4-0.2c-0.1,0.1-0.3,0.1-0.4,0.2 c-0.6,0-1.3,0.1-1.8,0.2c0-0.2,0-0.4-0.2-0.4c-0.3,0.4-0.9-0.1-1.6,0.1c-0.7-0.2,0.4,0.3,1.4,0.5C51.9,85,51.8,85.1,51.5,85.2 M37.5,86.6c-1.4-1.3-4.3-1.9-4.8-2.9c-0.8-0.1-2-1.6-3-1.8c0.5,0,0.1-0.3,0-0.5c-0.2,0.2-0.4,0.3-0.6,0.3 c0-0.8-0.8-1.3-1.5-1.8c0.5,0.3,0.9,0.5,1.5,0.6c0-0.2,0-0.4,0.2-0.4c0.7,0.7,1.5,1.4,2.4,2.1c1.2,1.1,7.4,3.9,8.5,4.4 c0,0-0.2,0.4-0.1,0.4c0.5,0.3,0.9-0.3,1,0.4C39.5,87.6,38.9,86.5,37.5,86.6 M83.6,63.4c0,0,0,0.1,0,0.1c0,0,0,0,0,0 C83.5,63.5,83.6,63.4,83.6,63.4 M43.2,17.1c-0.1,0.1-0.2,0.1-0.2,0.1C43,17.1,43.1,17.1,43.2,17.1 M41.3,17.6 C41.3,17.7,41.3,17.7,41.3,17.6C41.3,17.7,41.3,17.7,41.3,17.6C41.3,17.7,41.3,17.6,41.3,17.6 M34.7,19.7 C34.7,19.7,34.7,19.7,34.7,19.7c0.1-0.1,0.1-0.1,0.2-0.1C34.8,19.6,34.7,19.7,34.7,19.7 M50.7,16.4c-0.2,0-0.3,0-0.4-0.1 c0.1,0,0.2,0,0.3,0c0,0,0.1,0,0.1,0C50.7,16.3,50.7,16.3,50.7,16.4 M52.5,16.6c-0.1-0.1-0.4-0.2-0.7-0.2c0-0.1,0.1-0.2,0.1-0.2 c0.1,0,0.2,0,0.3,0c0,0,0.1,0,0.1,0.1c0,0,0,0,0-0.1c0.1,0,0.1,0,0.2,0C52.6,16.4,52.7,16.5,52.5,16.6 M55.8,16.9 c-0.5,0.1-0.8-0.1-1.3-0.4c0.3,0,0.7,0.1,1,0.2C55.6,16.7,55.7,16.8,55.8,16.9 M91.4,31.1c-0.2,0.1-0.3,0.1-0.5-0.3 c-1.6-3.4-4.5-8.3-8.7-12.4c-4.1-4.2-9.6-7.6-14.6-9.4c0.3,0.1,0.7,0.3,0.5,0.5c-4.4-1.7-8.6-2.7-12.6-3.1 C44.7,4.7,33.4,7,24.7,12.6c0.1,0.2,0.1,0.3-0.2,0.5c-3.2,2-7.7,5.5-11.3,10.1c-3.6,4.6-6.4,10.4-7.6,15.6 C5.7,38.5,5.8,38,6,38.2C3.4,48.5,4.1,57.3,7.7,64.9c0.2-0.2-0.5-1.2,0.1-1.1c0.4,1.1,0.9,2.3,1.5,3.4c0.7,1.6,1.5,3.7,2.6,4.2 C9.1,65.9,7.2,59.6,7,54c0.4,0.8,0.3,2.5,0.9,3.2c0.2-3.8-0.7-8.9,0.6-12.5c-0.3,1.9-0.5,4.5-0.3,7.1c0,1.9,0.9,7.2,1.5,7.7 c-0.1-0.1-0.1-0.6,0-0.6c0.3,0.6-0.4,0.9,0.1,1c0-0.2,0.1-0.2,0.2-0.2c1,2.2,2.3,5.6,3.3,7.3c1.2,2.2,2.8,4.2,4.6,6 c0,0.1,0.1,0.1,0.1,0.2c0.2,0.5,0.9,1.1,1.1,1.5c0.1,0.2-0.1,0.5,0,0.7c1.5,2.8,3.7,5.6,6.4,7.8c1.7,2,4.4,4.1,7.7,5.9 c3.2,1.7,6.9,3.1,10.3,3.9c2.4,0.6,5.3,0.7,7.1,1.1c2.4,0.5,6.6-0.2,8.7-0.6c12.6-1.9,25.1-10.5,31.4-22.9 C97.2,58.1,97,42.8,91.4,31.1"/></g></g></g></g></g></g></svg>
